<?xml version="1.0" encoding="UTF-8"?> <svg xmlns="http://www.w3.org/2000/svg" xmlns:xlink="http://www.w3.org/1999/xlink" width="120px" height="40px" viewBox="0 0 120 40" version="1.1"><!-- Generator: Sketch 53.2 (72643) - https://sketchapp.com --><title>Knox logo Tagline RGB</title><desc>Created with Sketch.</desc><g id="Home-Page-" stroke="none" stroke-width="1" fill="none" fill-rule="evenodd"><g id="Desktop-Nav-About-1280" transform="translate(-125.000000, -29.000000)" fill-rule="nonzero"><g id="Nav-versions"><g id="Nav-1-Alt-V2"><g id="Knox-logo-Tagline-RGB" transform="translate(125.000000, 29.000000)"><path d="M116.148368,36.8030593 C115.480965,36.8030593 114.833787,36.3824092 114.550646,35.9196941 L114.550646,33.374761 C114.833787,32.8910134 115.50119,32.4913958 116.148368,32.4913958 C117.220258,32.4913958 117.887661,33.3957935 117.887661,34.6367113 C117.867437,35.8776291 117.220258,36.8030593 116.148368,36.8030593 M116.431509,31.4818356 C115.662984,31.4818356 114.975357,31.8814532 114.530421,32.4703633 L114.530421,32.1128107 C114.530421,31.7973231 114.287729,31.5449331 113.984364,31.5449331 C113.680999,31.5449331 113.438307,31.7973231 113.438307,32.1128107 L113.438307,39.4321224 C113.438307,39.7476099 113.680999,40 113.984364,40 C114.267505,40 114.530421,39.7476099 114.530421,39.4321224 L114.530421,36.7609943 C114.995581,37.4130019 115.662984,37.791587 116.431509,37.791587 C117.948334,37.791587 119,36.5927342 119,34.6367113 C119,32.6596558 117.92811,31.4818356 116.431509,31.4818356 M111.193406,37.707457 C111.496771,37.707457 111.739463,37.4550669 111.739463,37.1395793 L111.739463,32.1128107 C111.739463,31.7973231 111.496771,31.5449331 111.193406,31.5449331 C110.890041,31.5449331 110.647349,31.7973231 110.647349,32.1128107 L110.647349,37.1395793 C110.667573,37.4550669 110.910265,37.707457 111.193406,37.707457 M111.193406,30.4302103 C111.577668,30.4302103 111.881033,30.1147228 111.881033,29.7151052 C111.881033,29.3154876 111.577668,29 111.193406,29 C110.829368,29 110.505778,29.3154876 110.505778,29.7151052 C110.505778,30.0936902 110.829368,30.4302103 111.193406,30.4302103 M108.402447,37.707457 C108.705812,37.707457 108.948504,37.4550669 108.948504,37.1395793 L108.948504,33.3957935 C108.948504,32.1338432 108.32155,31.4818356 107.087865,31.4818356 C106.197995,31.4818356 105.42947,31.9866157 105.045207,32.4703633 L105.045207,29.8202677 C105.045207,29.5047801 104.802515,29.2523901 104.49915,29.2523901 C104.195785,29.2523901 103.953093,29.5047801 103.953093,29.8202677 L103.953093,37.1395793 C103.953093,37.4550669 104.195785,37.707457 104.49915,37.707457 C104.782291,37.707457 105.045207,37.4550669 105.045207,37.1395793 L105.045207,33.332696 C105.348572,32.8910134 105.975527,32.4703633 106.64293,32.4703633 C107.39123,32.4703633 107.876615,32.7648184 107.876615,33.7743786 L107.876615,37.1606119 C107.85639,37.4550669 108.119307,37.707457 108.402447,37.707457 M98.1487084,37.1185468 C98.7352141,37.581262 99.4632903,37.791587 100.252039,37.791587 C101.768865,37.791587 102.577838,36.9923518 102.577838,35.9407266 C102.577838,34.5525813 101.384602,34.2791587 100.373385,34.0267686 C99.6453093,33.8585086 99.0385792,33.6692161 99.0385792,33.1644359 C99.0385792,32.6806883 99.503739,32.3862333 100.231815,32.3862333 C100.777872,32.3862333 101.283481,32.5544933 101.647519,32.8489484 C101.708192,32.8910134 101.809313,32.9330784 101.890211,32.9330784 C102.132903,32.9330784 102.335146,32.7227533 102.335146,32.4703633 C102.335146,32.3021033 102.254249,32.1759082 102.153127,32.0917782 C101.667743,31.7131931 101.020564,31.4608031 100.231815,31.4608031 C98.8161115,31.4608031 98.0273623,32.2810707 98.0273623,33.248566 C98.0273623,34.5525813 99.1801496,34.8260038 100.150918,35.0573614 C100.899218,35.2256214 101.546397,35.4359465 101.546397,36.0248566 C101.546397,36.5296367 101.121686,36.8871893 100.292488,36.8871893 C99.685758,36.8871893 99.0992522,36.6558317 98.6543168,36.3193117 C98.5734194,36.2772467 98.4925221,36.2351816 98.3914004,36.2351816 C98.128484,36.2351816 97.9262407,36.4455067 97.9262407,36.7189293 C97.946465,36.8871893 98.0273623,37.0344168 98.1487084,37.1185468 M96.8947995,31.5239006 C96.7936778,31.5239006 96.7127804,31.5449331 96.5914344,31.5869981 C96.1667233,31.7342256 95.7217879,32.0917782 95.3981985,32.5544933 L95.3981985,32.1338432 C95.3981985,31.8183556 95.1555065,31.5659656 94.8521414,31.5659656 C94.5690007,31.5659656 94.3263086,31.8183556 94.3263086,32.1338432 L94.3263086,37.1606119 C94.3263086,37.4760994 94.5690007,37.7284895 94.8723657,37.7284895 C95.1555065,37.7284895 95.4184228,37.4760994 95.4184228,37.1606119 L95.4184228,33.4799235 C95.6611149,33.0382409 96.3487424,32.6806883 96.8139021,32.6175908 C97.1779402,32.5755258 97.3801835,32.3441683 97.3801835,32.0917782 C97.3397349,31.7762906 97.1981645,31.5239006 96.8947995,31.5239006 M90.1398708,32.3862333 C91.3533311,32.3862333 91.8791638,33.374761 91.8993882,34.1739962 L88.3601292,34.1739962 C88.4208022,33.374761 88.9668593,32.3862333 90.1398708,32.3862333 M87.2275663,34.6156788 C87.2275663,36.5086042 88.5016995,37.7705545 90.2207682,37.7705545 C90.989293,37.7705545 91.6769205,37.5602294 92.2432019,37.1185468 C92.3645479,37.0344168 92.4252209,36.9082218 92.4252209,36.7399618 C92.4252209,36.4875717 92.2432019,36.2982792 92.0005099,36.2982792 C91.8993882,36.2982792 91.8184908,36.3193117 91.7578178,36.3613767 C91.3331067,36.6768642 90.807274,36.8451243 90.3218899,36.8451243 C89.1691027,36.8451243 88.4410265,36.0038241 88.3601292,34.9732314 L92.3240993,34.9732314 C92.728586,34.9732314 92.9510537,34.7839388 92.9510537,34.4474187 C92.9510537,32.8699809 91.8791638,31.4608031 90.1398708,31.4608031 C88.4410265,31.4818356 87.2275663,32.8910134 87.2275663,34.6156788 M84.032121,31.4818356 C83.1422502,31.4818356 82.3737254,31.9866157 81.989463,32.4703633 L81.989463,32.1338432 C81.989463,31.8183556 81.7467709,31.5659656 81.4434058,31.5659656 C81.1602651,31.5659656 80.9175731,31.8183556 80.9175731,32.1338432 L80.9175731,37.1606119 C80.9175731,37.4760994 81.1602651,37.7284895 81.4636302,37.7284895 C81.7467709,37.7284895 82.0096873,37.4760994 82.0096873,37.1606119 L82.0096873,33.332696 C82.3130523,32.8910134 82.9400068,32.4703633 83.6074099,32.4703633 C84.3557104,32.4703633 84.8410945,32.7858509 84.8410945,33.7954111 L84.8410945,37.1395793 C84.8410945,37.4550669 85.0837865,37.707457 85.3669273,37.707457 C85.6702923,37.707457 85.9129844,37.4550669 85.9129844,37.1395793 L85.9129844,33.416826 C85.8725357,32.1548757 85.2455812,31.4818356 84.032121,31.4818356 M77.5603331,37.707457 C77.8839225,37.707457 78.1670632,37.4971319 78.2479606,37.1816444 L79.7243372,32.3021033 C79.7445615,32.2600382 79.7445615,32.1759082 79.7445615,32.1338432 C79.7445615,31.8183556 79.5018695,31.5659656 79.2187288,31.5659656 C78.9760367,31.5659656 78.753569,31.7342256 78.7131203,31.9655832 L77.4996601,36.2141491 L76.1648538,32.0076482 C76.0839565,31.7342256 75.8614888,31.5659656 75.5783481,31.5659656 C75.2952073,31.5659656 75.0727396,31.7342256 74.9918423,32.0076482 L73.657036,36.2141491 L72.4435758,31.9655832 C72.3829028,31.7342256 72.1806594,31.5659656 71.9379674,31.5659656 C71.6548266,31.5659656 71.4121346,31.8183556 71.4121346,32.1128107 C71.4121346,32.1759082 71.4323589,32.2390057 71.4323589,32.2810707 L72.9087356,37.1606119 C72.9896329,37.4760994 73.2727736,37.6864245 73.596363,37.6864245 C73.9199524,37.6864245 74.2030931,37.4760994 74.2839905,37.1606119 L75.5581237,33.0172084 L76.832257,37.1606119 C76.953603,37.4971319 77.2367437,37.707457 77.5603331,37.707457 M69.4503739,33.500956 C69.4503739,35.3097514 68.3380354,36.6978967 66.6594154,36.6978967 C64.9403467,36.6978967 63.8684568,35.3307839 63.8684568,33.500956 C63.8684568,31.6711281 64.9403467,30.3040153 66.6594154,30.3040153 C68.3380354,30.3040153 69.4503739,31.6711281 69.4503739,33.500956 M62.6347723,33.500956 C62.6347723,35.9617591 64.2729436,37.791587 66.6594154,37.791587 C69.0458872,37.791587 70.6840585,35.9617591 70.6840585,33.500956 C70.6840585,31.040153 69.0458872,29.210325 66.6594154,29.210325 C64.2729436,29.210325 62.6347723,31.0191205 62.6347723,33.500956 M54.039429,37.1185468 C54.6259347,37.581262 55.3540109,37.791587 56.14276,37.791587 C57.6595853,37.791587 58.4685588,36.9923518 58.4685588,35.9407266 C58.4685588,34.5525813 57.2753229,34.2791587 56.2641061,34.0267686 C55.5360299,33.8585086 54.9292998,33.6692161 54.9292998,33.1644359 C54.9292998,32.6806883 55.3742352,32.3862333 56.1225357,32.3862333 C56.6685928,32.3862333 57.1742012,32.5544933 57.5382393,32.8489484 C57.5989123,32.8910134 57.700034,32.9330784 57.7809313,32.9330784 C58.0236234,32.9330784 58.2258668,32.7227533 58.2258668,32.4703633 C58.2258668,32.3021033 58.1449694,32.1759082 58.0438477,32.0917782 C57.5584636,31.7131931 56.9112848,31.4608031 56.1225357,31.4608031 C54.7068321,31.4608031 53.9180829,32.2810707 53.9180829,33.248566 C53.9180829,34.5525813 55.0708702,34.8260038 56.0416383,35.0573614 C56.7899388,35.2256214 57.4371176,35.4359465 57.4371176,36.0248566 C57.4371176,36.5296367 57.0124065,36.8871893 56.1832087,36.8871893 C55.5764786,36.8871893 54.9899728,36.6558317 54.5450374,36.3193117 C54.46414,36.2772467 54.3832427,36.2351816 54.282121,36.2351816 C54.0192046,36.2351816 53.8169613,36.4455067 53.8169613,36.7189293 C53.8371856,36.8871893 53.9180829,37.0344168 54.039429,37.1185468 M48.4372876,37.1185468 C49.0237933,37.581262 49.7518695,37.791587 50.5406186,37.791587 C52.0574439,37.791587 52.8664174,36.9923518 52.8664174,35.9407266 C52.8664174,34.5525813 51.6731815,34.2791587 50.6619646,34.0267686 C49.9338885,33.8585086 49.3271584,33.6692161 49.3271584,33.1644359 C49.3271584,32.6806883 49.7923182,32.3862333 50.5203943,32.3862333 C51.0664514,32.3862333 51.5720598,32.5544933 51.9360979,32.8489484 C51.9967709,32.8910134 52.0978926,32.9330784 52.1787899,32.9330784 C52.421482,32.9330784 52.6237254,32.7227533 52.6237254,32.4703633 C52.6237254,32.3021033 52.542828,32.1759082 52.4417063,32.0917782 C51.9563222,31.7131931 51.3091434,31.4608031 50.5203943,31.4608031 C49.1046907,31.4608031 48.3159415,32.2810707 48.3159415,33.248566 C48.3159415,34.5525813 49.4687288,34.8260038 50.4394969,35.0573614 C51.1877974,35.2256214 51.8349762,35.4359465 51.8349762,36.0248566 C51.8349762,36.5296367 51.4102651,36.8871893 50.5810673,36.8871893 C49.9743372,36.8871893 49.3878314,36.6558317 48.942896,36.3193117 C48.8619986,36.2772467 48.7811013,36.2351816 48.6799796,36.2351816 C48.4170632,36.2351816 48.2148199,36.4455067 48.2148199,36.7189293 C48.2350442,36.8871893 48.3159415,37.0344168 48.4372876,37.1185468 M44.4733175,32.3862333 C45.6867777,32.3862333 46.2126105,33.374761 46.2328348,34.1739962 L42.6935758,34.1739962 C42.7542488,33.374761 43.3205303,32.3862333 44.4733175,32.3862333 M41.5812373,34.6156788 C41.5812373,36.5086042 42.8553705,37.7705545 44.5744392,37.7705545 C45.342964,37.7705545 46.0305914,37.5602294 46.5968729,37.1185468 C46.7182189,37.0344168 46.7788919,36.9082218 46.7788919,36.7399618 C46.7788919,36.4875717 46.5968729,36.2982792 46.3541808,36.2982792 C46.2530591,36.2982792 46.1721618,36.3193117 46.1114888,36.3613767 C45.6867777,36.6768642 45.1609449,36.8451243 44.6755608,36.8451243 C43.5227736,36.8451243 42.7946975,36.0038241 42.7138001,34.9732314 L46.6575459,34.9732314 C47.0620326,34.9732314 47.2845003,34.7839388 47.2845003,34.4474187 C47.2845003,32.8699809 46.2126105,31.4608031 44.4733175,31.4608031 C42.7744731,31.4818356 41.5812373,32.8910134 41.5812373,34.6156788 M39.6801496,37.707457 C39.9632903,37.707457 40.2262067,37.4550669 40.2262067,37.1395793 L40.2262067,29.8202677 C40.2262067,29.5047801 39.9835146,29.2523901 39.6801496,29.2523901 C39.3767845,29.2523901 39.1340925,29.5047801 39.1340925,29.8202677 L39.1340925,37.1395793 C39.1340925,37.4550669 39.3767845,37.707457 39.6801496,37.707457 M35.5746091,31.4818356 C34.6847383,31.4818356 33.9162135,31.9866157 33.5319511,32.4703633 L33.5319511,32.1338432 C33.5319511,31.8183556 33.289259,31.5659656 32.9858939,31.5659656 C32.7027532,31.5659656 32.4600612,31.8183556 32.4600612,32.1338432 L32.4600612,37.1606119 C32.4600612,37.4760994 32.7027532,37.7284895 33.0061183,37.7284895 C33.289259,37.7284895 33.5521754,37.4760994 33.5521754,37.1606119 L33.5521754,33.332696 C33.8555404,32.8910134 34.4824949,32.4703633 35.149898,32.4703633 C35.8981985,32.4703633 36.3835826,32.7858509 36.3835826,33.7954111 L36.3835826,37.1395793 C36.3835826,37.4550669 36.6262746,37.707457 36.9094154,37.707457 C37.2127804,37.707457 37.4554725,37.4550669 37.4554725,37.1395793 L37.4554725,33.416826 C37.4352481,32.1548757 36.7880693,31.4818356 35.5746091,31.4818356 M28.1522774,36.8030593 C26.9994901,36.8030593 26.3523114,35.7724665 26.3523114,34.6367113 C26.3523114,33.500956 26.9994901,32.4913958 28.1522774,32.4913958 C29.3050646,32.4913958 29.9522434,33.5219885 29.9522434,34.6367113 C29.9522434,35.7724665 29.3252889,36.8030593 28.1522774,36.8030593 M28.1522774,37.791587 C29.9522434,37.791587 31.0645819,36.3824092 31.0645819,34.6367113 C31.0645819,32.9120459 29.9522434,31.4818356 28.1522774,31.4818356 C26.3523114,31.4818356 25.2197485,32.9120459 25.2197485,34.6367113 C25.2399728,36.3613767 26.3725357,37.791587 28.1522774,37.791587 M23.3388851,37.707457 C23.6422502,37.707457 23.8849422,37.4550669 23.8849422,37.1395793 L23.8849422,32.1128107 C23.8849422,31.7973231 23.6422502,31.5449331 23.3388851,31.5449331 C23.0355201,31.5449331 22.792828,31.7973231 22.792828,32.1128107 L22.792828,37.1395793 C22.8130523,37.4550669 23.0355201,37.707457 23.3388851,37.707457 M23.3388851,30.4302103 C23.7231475,30.4302103 24.0265126,30.1147228 24.0265126,29.7151052 C24.0265126,29.3154876 23.7231475,29 23.3388851,29 C22.974847,29 22.6512576,29.3154876 22.6512576,29.7151052 C22.6310333,30.0936902 22.9546227,30.4302103 23.3388851,30.4302103 M21.3771244,36.7189293 C21.2760027,36.7189293 21.1951054,36.8030593 20.992862,36.8030593 C20.6288239,36.8030593 20.4265806,36.4875717 20.4265806,36.0669216 L20.4265806,32.6175908 L21.174881,32.6175908 C21.4377974,32.6175908 21.6602651,32.3862333 21.6602651,32.1128107 C21.6602651,31.8604207 21.4377974,31.6290631 21.174881,31.6290631 L20.4265806,31.6290631 L20.4265806,30.4933078 C20.4265806,30.1778203 20.1838885,29.9254302 19.8805235,29.9254302 C19.5771584,29.9254302 19.3344663,30.1778203 19.3344663,30.4933078 L19.3344663,31.6290631 L18.7884092,31.6290631 C18.5457172,31.6290631 18.3030252,31.8604207 18.3030252,32.1128107 C18.3030252,32.3862333 18.5254929,32.6175908 18.7884092,32.6175908 L19.3344663,32.6175908 L19.3344663,36.3193117 C19.3344663,37.2657744 19.7996261,37.791587 20.7097213,37.791587 C21.053535,37.791587 21.3366757,37.707457 21.5389191,37.623327 C21.7007138,37.5602294 21.8220598,37.4130019 21.8220598,37.2026769 C21.8422842,36.9082218 21.6602651,36.7189293 21.3771244,36.7189293 M12.8424541,34.6156788 C12.8424541,36.4244742 14.03569,37.7705545 15.7952073,37.7705545 C16.6244052,37.7705545 17.1906866,37.4971319 17.635622,37.0764818 C17.7367437,36.9923518 17.7974167,36.8451243 17.7974167,36.6978967 C17.7974167,36.4244742 17.574949,36.1931166 17.3120326,36.1931166 C17.1906866,36.1931166 17.0693406,36.2351816 17.0086676,36.3193117 C16.6648538,36.6347992 16.3008158,36.7820268 15.8558804,36.7820268 C14.7233175,36.7820268 13.9952413,35.8565966 13.9952413,34.6156788 C13.9952413,33.374761 14.7233175,32.4703633 15.8558804,32.4703633 C16.3210401,32.4703633 16.6850782,32.6175908 17.0086676,32.9330784 C17.0895649,33.0172084 17.1906866,33.0592734 17.332257,33.0592734 C17.5951734,33.0592734 17.8176411,32.8279159 17.8176411,32.5544933 C17.8176411,32.4072658 17.7367437,32.2600382 17.6558464,32.1759082 C17.2109109,31.7552581 16.6446295,31.4818356 15.8154317,31.4818356 C14.03569,31.4818356 12.8424541,32.8279159 12.8424541,34.6156788 M10.9413664,37.707457 C11.2447315,37.707457 11.4874235,37.4550669 11.4874235,37.1395793 L11.4874235,32.1128107 C11.4874235,31.7973231 11.2447315,31.5449331 10.9413664,31.5449331 C10.6380014,31.5449331 10.3953093,31.7973231 10.3953093,32.1128107 L10.3953093,37.1395793 C10.4155337,37.4550669 10.6380014,37.707457 10.9413664,37.707457 M10.9413664,30.4302103 C11.3256288,30.4302103 11.6289939,30.1147228 11.6289939,29.7151052 C11.6289939,29.3154876 11.3256288,29 10.9413664,29 C10.5773283,29 10.253739,29.3154876 10.253739,29.7151052 C10.2335146,30.0936902 10.557104,30.4302103 10.9413664,30.4302103 M8.93915704,31.5239006 C8.83803535,31.5239006 8.757138,31.5449331 8.63579198,31.5869981 C8.2110809,31.7342256 7.76614548,32.0917782 7.44255608,32.5544933 L7.44255608,32.1338432 C7.44255608,31.8183556 7.19986404,31.5659656 6.89649898,31.5659656 C6.61335826,31.5659656 6.37066621,31.8183556 6.37066621,32.1338432 L6.37066621,37.1606119 C6.37066621,37.4760994 6.61335826,37.7284895 6.91672332,37.7284895 C7.19986404,37.7284895 7.46278042,37.4760994 7.46278042,37.1606119 L7.46278042,33.4799235 C7.70547247,33.0382409 8.39309993,32.6806883 8.85825969,32.6175908 C9.22229776,32.5755258 9.42454113,32.3441683 9.42454113,32.0917782 C9.40431679,31.7762906 9.26274643,31.5239006 8.93915704,31.5239006 M0.626954453,37.707457 C0.950543848,37.707457 1.21346023,37.4130019 1.21346023,37.0764818 L1.21346023,33.9426386 L4.81339225,33.9426386 C5.09653297,33.9426386 5.35944935,33.6902486 5.35944935,33.374761 C5.35944935,33.0803059 5.11675731,32.8489484 4.81339225,32.8489484 L1.21346023,32.8489484 L1.21346023,30.4302103 L4.8942896,30.4302103 C5.17743032,30.4302103 5.4403467,30.1988528 5.4403467,29.9043977 C5.4403467,29.5889101 5.19765466,29.3365201 4.8942896,29.3365201 L0.64717879,29.3365201 C0.222467709,29.3365201 0,29.5678776 0,29.9885277 L0,37.0764818 C0.0202243372,37.4130019 0.303365058,37.707457 0.626954453,37.707457" id="Shape" fill="#234C62"></path><rect id="Rectangle" fill="#234C62" x="0" y="23" width="119" height="1"></rect><g id="Group"><polygon id="Path" fill="#7FB036" points="100.040609 0.189473684 100.040609 1.83157895 101.604061 0.189473684"></polygon><polygon id="Path" fill="#7FB036" points="100.040609 3.70526316 100.040609 5.47368421 105.116751 0.189473684 103.431472 0.189473684"></polygon><polygon id="Path" fill="#7FB036" points="100.040609 7.36842105 100.040609 9.11578947 108.629442 0.189473684 106.944162 0.189473684"></polygon><polygon id="Path" fill="#7FB036" points="100.040609 11.0105263 100.040609 12.7578947 112.182741 0.189473684 110.416244 0.189473684"></polygon><polygon id="Path" fill="#7FB036" points="100.040609 14.6526316 100.040609 16.4210526 115.654822 0.189473684 113.908629 0.189473684"></polygon><polygon id="Path" fill="#7FB036" points="100.040609 18.2526316 100.040609 19.9578947 119.147208 0.189473684 117.42132 0.189473684"></polygon><polygon id="Path" fill="#234C62" points="110.680203 10.5263158 109.86802 11.3684211 118.091371 19.9578947 119.837563 19.9578947 110.720812 10.4842105"></polygon><polygon id="Path" fill="#234C62" points="108.081218 13.2210526 114.680203 19.9578947 116.385787 19.9578947 108.994924 12.2736842"></polygon><polygon id="Path" fill="#234C62" points="106.375635 14.9894737 111.167513 19.9578947 112.812183 19.9578947 107.248731 14.0842105"></polygon><polygon id="Path" fill="#234C62" points="104.588832 16.8210526 107.675127 19.9578947 109.340102 19.9578947 105.461929 15.9157895"></polygon><polygon id="Path" fill="#234C62" points="102.862944 18.6105263 104.182741 19.9578947 105.827411 19.9578947 103.715736 17.7263158"></polygon><polygon id="Path" fill="#234C62" points="101.543147 19.9578947 102.80203 19.9578947 102.213198 19.2842105"></polygon><path d="M5.36040609,8.88421053 L11.5939086,2 C11.7360406,1.85263158 11.8172589,1.66315789 11.7969543,1.45263158 C11.7766497,1.24210526 11.6751269,1.01052632 11.5126904,0.863157895 C11.3705584,0.736842105 11.1878173,0.673684211 11.0050761,0.673684211 C10.7614213,0.673684211 10.5177665,0.778947368 10.3553299,0.968421053 L0.385786802,12.0210526 C0.263959391,12.1684211 0.182741117,12.3578947 0.182741117,12.5263158 L0.182741117,18.8842105 C0.182741117,19.3052632 0.54822335,19.6631579 1.01522843,19.6631579 C1.46192893,19.6631579 1.8071066,19.3263158 1.8071066,18.8842105 L1.8071066,12.8210526 L4.30456853,10.0842105 L11.7969543,19.3684211 C11.9390863,19.5578947 12.142132,19.6421053 12.4263959,19.6421053 C12.6294416,19.6421053 12.7918782,19.6 12.9137056,19.4947368 C13.0964467,19.3684211 13.1979695,19.1789474 13.2385787,18.9684211 C13.2791878,18.7578947 13.2182741,18.5473684 13.0964467,18.3578947 L5.36040609,8.88421053 Z" id="Path" fill="#234C62"></path><path d="M1.01522843,9.24210526 C1.46192893,9.24210526 1.8071066,8.90526316 1.8071066,8.48421053 L1.8071066,1.47368421 C1.8071066,1.05263158 1.44162437,0.673684211 1.01522843,0.673684211 C0.568527919,0.673684211 0.182741117,1.05263158 0.182741117,1.47368421 L0.182741117,8.48421053 C0.182741117,8.90526316 0.54822335,9.24210526 1.01522843,9.24210526" id="Path" fill="#234C62"></path><path d="M37.6446701,0.673684211 C37.2182741,0.673684211 36.8527919,1.03157895 36.8527919,1.47368421 L36.8527919,16.3578947 L33.035533,11.0526316 C32.9137056,10.8421053 32.6497462,10.6947368 32.3857868,10.6947368 C32.2030457,10.6947368 32.0406091,10.7578947 31.9187817,10.8421053 C31.7360406,10.9473684 31.6345178,11.1157895 31.5736041,11.3052632 C31.5329949,11.5157895 31.5736041,11.7263158 31.6751269,11.9157895 L36.9746193,19.3052632 C37.1167513,19.5368421 37.3401015,19.6631579 37.6243655,19.6631579 C37.6649746,19.6631579 37.7055838,19.6631579 37.7461929,19.6421053 C37.786802,19.6421053 37.8274112,19.6210526 37.8477157,19.6210526 L37.8680203,19.6210526 C38.213198,19.5157895 38.4365482,19.2 38.4365482,18.8631579 L38.4365482,1.47368421 C38.4568528,1.03157895 38.0913706,0.673684211 37.6446701,0.673684211" id="Path" fill="#234C62"></path><path d="M25.8477157,1.03157895 C25.6852792,0.757894737 25.319797,0.610526316 24.9340102,0.694736842 C24.5888325,0.8 24.3654822,1.09473684 24.3654822,1.45263158 L24.3654822,18.8421053 C24.3654822,19.2842105 24.7309645,19.6421053 25.1979695,19.6421053 C25.6446701,19.6421053 25.9898477,19.2842105 25.9898477,18.8421053 L25.9898477,3.97894737 L29.8680203,9.34736842 C30.0101523,9.57894737 30.2741117,9.70526316 30.5380711,9.70526316 C30.7005076,9.70526316 30.8629442,9.66315789 31.0050761,9.55789474 C31.3502538,9.30526316 31.4314721,8.82105263 31.2081218,8.46315789 L25.8477157,1.03157895 Z" id="Path" fill="#234C62"></path><path d="M56.9746193,18.1473684 C54.8832487,18.1473684 53.4213198,17.6210526 52.5076142,16.5052632 C51.4314721,15.1789474 50.9238579,13.0947368 50.9238579,10.1684211 C50.9238579,7.15789474 51.4111675,5.09473684 52.4060914,3.83157895 C53.319797,2.71578947 54.7614213,2.18947368 56.9746193,2.18947368 C59.0862944,2.18947368 60.5888325,2.8 61.5431472,4.02105263 C62.4974619,5.32631579 62.964467,7.32631579 62.964467,10.1684211 C62.964467,12.8842105 62.4365482,14.9684211 61.4010152,16.3157895 C60.4263959,17.5368421 58.9847716,18.1473684 56.9746193,18.1473684 M60.3248731,1.2 C59.4314721,0.8 58.3350254,0.589473684 56.9746193,0.589473684 C55.6345178,0.589473684 54.5380711,0.757894737 53.6446701,1.09473684 C52.6294416,1.47368421 51.7969543,2.04210526 51.1472081,2.82105263 C50.4974619,3.55789474 50.0507614,4.54736842 49.7461929,5.83157895 C49.4416244,7.09473684 49.2994924,8.50526316 49.2994924,10.1473684 C49.2994924,13.5368421 49.9492386,15.9368421 51.3096447,17.4736842 C52.5685279,18.9684211 54.4162437,19.7052632 56.9746193,19.7052632 C59.4517766,19.7052632 61.3604061,18.9052632 62.6395939,17.3052632 C63.3096447,16.5052632 63.8172589,15.4947368 64.142132,14.2947368 C64.4467005,13.0736842 64.5888325,11.6842105 64.5888325,10.1684211 C64.5888325,6.94736842 64.0203046,4.61052632 62.822335,3.05263158 C62.1319797,2.18947368 61.2994924,1.57894737 60.3248731,1.2" id="Shape" fill="#234C62"></path><path d="M84.2436548,9.15789474 C84.3857868,9.24210526 84.5685279,9.28421053 84.7309645,9.28421053 C84.9949239,9.28421053 85.2182741,9.17894737 85.3807107,8.96842105 L90.9238579,1.93684211 C91.0456853,1.78947368 91.0862944,1.57894737 91.0659898,1.34736842 C91.0253807,1.11578947 90.9238579,0.926315789 90.7411168,0.8 C90.5989848,0.694736842 90.4162437,0.652631579 90.2538071,0.652631579 C90.0101523,0.652631579 89.7664975,0.757894737 89.6040609,0.968421053 L84.0609137,8.04210526 C83.9390863,8.16842105 83.8781726,8.35789474 83.8984772,8.56842105 C83.9187817,8.8 84.0406091,9.03157895 84.2436548,9.15789474" id="Path" fill="#234C62"></path><path d="M76.6294416,0.989473684 C76.4873096,0.778947368 76.2436548,0.673684211 75.9796954,0.673684211 C75.7969543,0.673684211 75.6345178,0.715789474 75.4923858,0.821052632 C75.3299492,0.947368421 75.2081218,1.13684211 75.1878173,1.34736842 C75.1675127,1.55789474 75.2284264,1.76842105 75.3502538,1.93684211 L81.7461929,10.1684211 L75.3502538,18.4 C75.2284264,18.5684211 75.1675127,18.7578947 75.1878173,18.9684211 C75.2081218,19.1789474 75.3299492,19.3894737 75.5126904,19.5368421 C75.6954315,19.6210526 75.857868,19.6631579 76.0203046,19.6631579 C76.2639594,19.6631579 76.5279188,19.5368421 76.6497462,19.3473684 L83.4111675,10.6736842 C83.6345178,10.3789474 83.6345178,10.0210526 83.4111675,9.70526316 L76.6294416,0.989473684 Z" id="Path" fill="#234C62"></path><path d="M90.9035533,18.3789474 L85.3604061,11.3473684 C85.1979695,11.1578947 84.9746193,11.0315789 84.7106599,11.0315789 C84.5482234,11.0315789 84.3654822,11.0736842 84.2233503,11.1789474 C84.0406091,11.3052632 83.9187817,11.4947368 83.8781726,11.7263158 C83.857868,11.9368421 83.9187817,12.1473684 84.0406091,12.2947368 L89.5634518,19.3263158 C89.7055838,19.5368421 89.9492386,19.6631579 90.213198,19.6631579 C90.3756345,19.6631579 90.5380711,19.6210526 90.7005076,19.5157895 C90.8832487,19.3684211 90.9847716,19.1789474 91.0050761,18.9473684 C91.0659898,18.7368421 91.0253807,18.5263158 90.9035533,18.3789474" id="Path" fill="#234C62"></path></g></g></g></g></g></g></svg> 